<svg xmlns="http://www.w3.org/2000/svg" viewBox="0 0 30 15.8">
  <path d="M23.9 15.8c-.4 0-1.2-.1-2.1-.6L20 13.7c-.4-.4-1.2-1.2-1.4-1.2-.3.1-.5.9-.5 1.6 0 .1 0 .8-.5 1.2-.4.4-1.1.5-1.2.5h-1.9c-1 0-4.4-.2-7.4-3C3.4 9.4.3 3 .1 2.7 0 2.2-.1 1.5.3 1.1.7.7 1.4.6 1.7.6H5.9l1 .3c.4.2.6.7.6.7S8.1 3 9 4.3c1.3 2 1.9 2.5 2.1 2.6.2-.4.3-1.7.2-2.9 0-.5-.1-1.1-.3-1.3-.1-.1-.4-.3-.8-.3l-.7-.6c-.1-.7.6-1.2 1.1-1.4.7-.3 1.8-.4 3.1-.4h.7c1.2 0 1.6.1 2.1.2 1.7.4 1.6 1.7 1.6 3.3v2.1l.1 1.3a16.3 16.3 0 003.6-5.3c.2-.4.6-.9 1.6-.9h4.7c1 0 1.6.3 1.8.9.3.6.2 1.7-2.4 4.6l-1 1.1c-.6.7-1.2 1.4-1.2 1.6l1.3 1.1c1.5 1.2 2.5 2.3 3 3.1.5.8.4 1.3.3 1.7-.4.9-1.6 1-1.9 1h-4.1zm-5.3-4.9c.9 0 1.7.8 2.5 1.6.5.5 1 1 1.5 1.3.7.4 1.3.4 1.4.4h3.9l.5-.1-.1-.2c-.4-.7-1.4-1.7-2.7-2.7-1.2-1-1.8-1.5-1.9-2.2-.1-.8.5-1.4 1.6-2.7l1-1.1c1.6-1.8 2-2.6 2.1-3H23.1c-.2.4-.8 1.8-1.6 3-1.9 2.8-2.8 3.2-3.4 3.2l-.6-.1c-1-.6-1-1.8-.9-2.8v-.4-1.7c.1-1.7 0-1.7-.4-1.8l-1.9-.2h-.7l-1.9.1.3.3c.6.7.6 2 .6 2.2.1 1.6.1 3.8-1 4.3l-.6.1c-.9 0-1.9-.9-3.4-3.3-.8-1.2-1.5-2.7-1.5-2.8L6 2.2l-.3-.1h-4-.1a39 39 0 006.5 9.5 9.7 9.7 0 006.4 2.6h1.9l.3-.1V14c0-.3 0-2.6 1.6-3l.3-.1z"/>
</svg>
