<svg xmlns="http://www.w3.org/2000/svg" viewBox="0 0 19 21">
  <path d="M18.9 18.9L15.2 8.8c-.1-.5.1-.7.3-1.1l2.8-4.6c.7-1.2.6-2.3-.1-2.8s-1.7-.1-2.5 1l-3 4.5c-.3.4-.4.7-.9.8-.1-.1-10.3.4-10.6.4-.3 0-.7.1-1 .6-.4.7-.2.9.2 1l8.3 2.7c.3 0 .3.2.2.6l-1.6 2.6c-.1.2-.2.2-.4.3l-2.8 1-.4.3-.4.6c-.2.3-.1.5.2.5a20.6 20.6 0 002.5.3c.2.1.4.3.2.6-.3.6-.4 1.2-.2 1.3s.6-.2 1-.7c.2-.3.4-.2.6 0 .2-.1.4.1.4.1l1 1.9c.2.3.4.3.6 0l.4-.6.1-.5-.3-3.1.1-.5 1.6-2.5c.2-.3.4-.3.6-.1l5.7 6.7c.3.3.5.4.9-.2.4-.4.3-.8.2-1z"/>
</svg>
