<svg xmlns="http://www.w3.org/2000/svg" viewBox="0 0 71 48">
  <g fill="none">
    <rect width="70" height="47" x=".9" y=".1" fill="#4758A9" rx="6.4"/>
    <path fill="#F6D660" d="M13.9.1h37v47z"/>
    <path fill="#FFF" d="M8.2 4.9c-.3-.1-.3-.3 0-.4l1-.4a1 1 0 00.5-.8v-1c0-.2.2-.3.3 0l.7.7c.2.2.5.3.8.2l1-.4c.3-.1.4 0 .3.2l-.6 1a.8.8 0 000 .9l.6.8c.2.2 0 .4-.2.3l-1-.2a.9.9 0 00-.8.4l-.6.7c-.2.2-.3.2-.4 0v-1a.8.8 0 00-.6-.7l-1-.3zm4.3 5.5c-.3-.1-.3-.3 0-.4l1-.4a1 1 0 00.5-.7v-1c0-.3.2-.4.3-.2l.7.8c.2.3.5.3.8.2l1.1-.4c.3-.1.3 0 .2.2l-.6 1a.8.8 0 000 .9l.6.8c.2.3.1.4-.2.3l-1-.2a.9.9 0 00-.8.4l-.6.7c-.1.3-.3.2-.3 0l-.2-1a.8.8 0 00-.5-.7l-1-.3zm4.3 5.5c-.2-.1-.2-.3 0-.4l1-.4a1 1 0 00.5-.7v-1c0-.3.2-.4.4-.2l.7.8c.2.3.5.3.8.2l1-.4c.3-.1.4 0 .2.3l-.6 1a.8.8 0 000 .8l.7.8c.1.3 0 .4-.2.4l-1-.3a.9.9 0 00-.9.4l-.5.7c-.2.3-.4.2-.4 0l-.1-1a.8.8 0 00-.6-.7l-1-.3zm4.4 5.5c-.3-.1-.3-.3 0-.4l1-.4a1 1 0 00.5-.8v-1c0-.2.1-.3.3 0l.7.7c.2.3.5.3.8.2l1-.4c.3 0 .4 0 .3.2l-.7 1a.8.8 0 000 .9l.7.8c.2.3 0 .4-.2.3l-1-.2a.9.9 0 00-.9.4l-.5.7c-.2.3-.3.2-.4 0v-1a.8.8 0 00-.6-.7l-1-.3zm4.3 5.5c-.3-.1-.3-.3 0-.4l1-.4a1 1 0 00.5-.8v-1c0-.2.2-.3.3 0l.7.7c.2.3.5.3.8.2l1-.4c.3-.1.4 0 .3.2l-.6 1a.8.8 0 000 .9l.6.8c.2.3.1.4-.2.3l-1-.2a.9.9 0 00-.8.4l-.6.7c-.2.3-.3.2-.3 0l-.2-1a.8.8 0 00-.5-.7l-1-.3zm4.3 5.5c-.2-.1-.3-.3 0-.4l1-.4a1 1 0 00.5-.7v-1c0-.3.2-.4.4-.2l.6.8c.2.3.6.3.8.2l1.1-.4c.3-.1.4 0 .2.2l-.6 1a.8.8 0 000 .9l.7.8c.1.3 0 .4-.2.3l-1.1-.1a.9.9 0 00-.8.3l-.6.7c-.1.3-.3.2-.3 0l-.1-1a.8.8 0 00-.6-.7l-1-.3zm4.4 5.5c-.3 0-.3-.2 0-.4l1-.4a1 1 0 00.4-.7v-1c0-.3.2-.4.4-.2l.7.9c.2.2.5.3.8.2l1-.5c.3 0 .4 0 .2.3l-.6 1a.8.8 0 000 .8l.7.9c.2.2 0 .3-.2.3l-1-.2a.9.9 0 00-.9.3l-.5.7c-.2.3-.3.2-.4 0l-.1-1a.8.8 0 00-.5-.7l-1-.3zm3.7 4.7c-.3 0-.3-.2 0-.4l1-.4a1 1 0 00.5-.7v-1c0-.3.1-.4.3-.1l.7.8c.2.2.5.3.8.2l1-.5c.3 0 .4 0 .3.3l-.7 1a.8.8 0 000 .8l.7.9c.2.2 0 .3-.2.3l-1-.2a.9.9 0 00-.8.3l-.6.8c-.2.2-.3.1-.4-.1v-1a.8.8 0 00-.6-.7l-1-.3z"/>
  </g>
</svg>
